<?xml version="1.0" standalone="no"?>
<!DOCTYPE svg PUBLIC "-//W3C//DTD SVG 20010904//EN"
 "http://www.w3.org/TR/2001/REC-SVG-20010904/DTD/svg10.dtd">
<svg version="1.0" xmlns="http://www.w3.org/2000/svg"
 width="390.000000pt" height="390.000000pt" viewBox="0 0 390.000000 390.000000"
 preserveAspectRatio="xMidYMid meet">
<metadata>
Created by potrace 1.11, written by Peter Selinger 2001-2013
</metadata>
<g transform="translate(0.000000,390.000000) scale(0.100000,-0.100000)"
fill="#000000" stroke="none">
<path d="M1745 3888 c-283 -29 -618 -146 -850 -298 -302 -198 -538 -465 -695
-785 -425 -873 -143 -1930 659 -2467 594 -397 1322 -444 1960 -127 537 266
921 768 1040 1357 147 728 -147 1498 -740 1941 -391 292 -886 429 -1374 379z
m1137 -1119 c107 -23 174 -71 219 -159 21 -39 24 -59 23 -150 0 -94 -3 -113
-32 -185 -45 -114 -124 -237 -204 -318 l-69 -70 25 -26 c41 -43 59 -98 58
-181 -1 -174 -94 -329 -244 -407 -45 -23 -65 -27 -134 -28 -83 0 -90 3 -180
69 -8 7 -30 -2 -69 -29 -48 -33 -66 -40 -120 -43 -78 -5 -145 23 -178 74 -12
19 -24 34 -27 34 -3 0 -21 -16 -39 -35 -57 -61 -122 -83 -190 -65 -47 12 -96
50 -116 91 -29 55 -18 178 30 328 6 19 4 20 -18 10 -20 -9 -37 -46 -99 -218
l-75 -206 -45 -3 c-67 -4 -74 7 -81 140 -4 62 -10 130 -14 152 l-6 38 -49 -4
c-27 -3 -51 -8 -54 -11 -3 -3 -32 -75 -63 -159 l-56 -153 -38 -3 c-78 -7 -82
30 -27 215 16 54 30 101 30 104 0 3 -22 11 -49 18 -139 36 -221 156 -193 283
16 71 42 111 93 145 38 25 51 28 129 28 77 0 91 -3 128 -27 22 -15 43 -24 45
-20 3 4 41 97 85 207 44 110 100 247 126 304 25 58 44 106 43 107 -1 2 -34
-25 -73 -59 -283 -251 -442 -313 -537 -211 -53 57 -56 178 -7 204 16 9 22 6
34 -17 61 -120 208 -88 506 108 151 99 159 101 213 51 15 -14 27 -32 27 -39 0
-7 -18 -57 -40 -110 -38 -96 -97 -246 -206 -528 -30 -77 -58 -149 -63 -160 -7
-18 14 -101 51 -197 4 -11 89 13 93 26 41 140 312 850 358 943 52 101 115 143
216 143 48 0 65 -5 87 -23 36 -31 28 -62 -11 -47 -43 16 -63 12 -100 -22 -28
-26 -49 -70 -106 -213 -101 -256 -260 -687 -256 -698 6 -19 56 36 105 117 48
78 56 86 95 96 23 6 59 20 79 31 47 24 98 24 146 0 69 -35 77 -52 76 -155 -1
-74 -7 -107 -32 -178 l-31 -88 40 0 c46 0 87 -18 145 -66 l41 -33 33 67 c39
80 128 307 235 597 107 292 135 335 219 335 65 0 70 -8 46 -71 -12 -30 -55
-146 -96 -259 -67 -185 -84 -244 -68 -228 3 3 21 2 40 -2 32 -7 37 -5 79 42
121 135 204 392 177 547 -14 76 -52 145 -95 172 -60 38 -182 8 -274 -67 -91
-74 -187 -245 -233 -414 -34 -122 -35 -303 -2 -375 l23 -50 -22 -17 c-29 -24
-59 -23 -99 5 -62 41 -75 84 -75 237 0 165 20 242 101 408 89 179 225 309 364
346 67 18 161 20 232 5z"/>
<path d="M984 1950 c-39 -58 -45 -161 -15 -224 21 -43 79 -93 92 -78 4 4 28
65 54 135 46 126 46 129 28 149 -20 23 -89 57 -115 58 -10 0 -30 -18 -44 -40z"/>
<path d="M1914 1903 c-73 -111 -163 -347 -179 -470 -7 -58 8 -123 30 -123 18
0 86 107 133 210 101 218 134 440 67 440 -7 0 -30 -26 -51 -57z"/>
<path d="M2720 1849 c-14 -6 -42 -9 -63 -7 l-37 3 -49 -113 c-55 -124 -120
-249 -157 -299 -13 -17 -24 -34 -24 -37 0 -9 87 -65 111 -71 34 -8 98 40 155
118 111 150 158 315 113 399 -11 20 -14 21 -49 7z"/>
<path d="M1236 1685 c-10 -25 -16 -48 -13 -51 2 -3 17 -2 31 2 24 6 26 10 20
38 -12 58 -20 60 -38 11z"/>
<path d="M1382 1602 c-22 -3 -23 -6 -16 -60 3 -31 8 -58 9 -60 5 -6 37 98 33
110 -2 7 -13 12 -26 10z"/>
<path d="M2101 1514 c-45 -57 -40 -152 10 -197 28 -26 33 -27 52 -14 27 17 87
94 87 110 0 16 -103 127 -117 127 -7 0 -21 -12 -32 -26z"/>
</g>
</svg>
